# This file uses centimeters as units for non-parametric coordinates.

mtllib CuttingBoard.mtl
g default
v -5.594351 6.433284 -19.700041
v -4.677925 6.433284 -18.783618
v -4.916052 6.433284 -18.965950
v -5.173832 6.433284 -19.204137
v -5.412019 6.433284 -19.461917
v -5.594351 7.570240 -19.700041
v -5.412019 7.570240 -19.461917
v -5.173832 7.570240 -19.204137
v -4.916052 7.570240 -18.965950
v -4.677925 7.570240 -18.783618
v 5.594351 6.433284 -19.700041
v 5.412019 6.433284 -19.461917
v 5.173832 6.433284 -19.204137
v 4.916052 6.433284 -18.965950
v 4.677925 6.433284 -18.783618
v 5.594351 7.570240 -19.700041
v 4.677925 7.570240 -18.783618
v 4.916052 7.570240 -18.965950
v 5.173832 7.570240 -19.204137
v 5.412019 7.570240 -19.461917
v -4.916052 7.570240 -26.471769
v -5.173832 7.570240 -26.233583
v -5.412019 7.570240 -25.975803
v -5.594351 7.570240 -25.737679
v -4.677925 7.570240 -26.654102
v -5.594351 6.433284 -25.737679
v -5.412019 6.433284 -25.975803
v -5.173832 6.433284 -26.233583
v -4.916052 6.433284 -26.471769
v -4.677925 6.433284 -26.654102
v 5.412019 7.570240 -25.975803
v 5.173832 7.570240 -26.233583
v 4.916052 7.570240 -26.471769
v 4.677925 7.570240 -26.654102
v 5.594351 7.570240 -25.737679
v 5.594351 6.433284 -25.737679
v 4.677925 6.433284 -26.654102
v 4.916052 6.433284 -26.471769
v 5.173832 6.433284 -26.233583
v 5.412019 6.433284 -25.975803
vt 0.619024 0.292558
vt 0.616363 0.236828
vt 0.912309 0.222702
vt 0.914969 0.278432
vt 0.601663 0.237530
vt 0.604323 0.293260
vt 0.929670 0.277731
vt 0.927010 0.222001
vt 0.584459 0.238351
vt 0.587119 0.294081
vt 0.946874 0.276910
vt 0.944214 0.221180
vt 0.567255 0.239173
vt 0.569915 0.294902
vt 0.964078 0.276088
vt 0.961417 0.220358
vt 0.552554 0.239874
vt 0.555214 0.295604
vt 0.978779 0.275387
vt 0.976118 0.219657
vt 0.638943 0.349312
vt 0.637840 0.293530
vt 0.934065 0.287672
vt 0.935168 0.343454
vt 0.624229 0.349603
vt 0.623126 0.293821
vt 0.948780 0.287381
vt 0.949883 0.343164
vt 0.607009 0.349944
vt 0.605906 0.294161
vt 0.966000 0.287040
vt 0.967103 0.342823
vt 0.589789 0.350284
vt 0.588686 0.294502
vt 0.983220 0.286700
vt 0.984323 0.342483
vt 0.575074 0.350575
vt 0.573971 0.294793
vt 0.997935 0.286409
vt 0.999038 0.342192
vt 0.543711 0.352511
vt 0.532173 0.365298
vt 0.519662 0.377135
vt 0.508083 0.386220
vt 0.048999 0.391642
vt 0.037208 0.382833
vt 0.024421 0.371295
vt 0.012584 0.358784
vt 0.003499 0.347205
vt 0.000000 0.050943
vt 0.008809 0.039153
vt 0.020347 0.026365
vt 0.032858 0.014528
vt 0.044437 0.005443
vt 0.503521 0.000021
vt 0.515312 0.008830
vt 0.528099 0.020368
vt 0.539936 0.032879
vt 0.549021 0.044458
vt 0.552520 0.340720
vt 0.207578 0.389800
vt 0.503859 0.388738
vt 0.515576 0.397643
vt 0.528268 0.409286
vt 0.540002 0.421894
vt 0.548991 0.433548
vt 0.550637 0.892661
vt 0.541731 0.904379
vt 0.530088 0.917070
vt 0.517481 0.928804
vt 0.505827 0.937794
vt 0.209546 0.938856
vt 0.197829 0.929950
vt 0.185137 0.918307
vt 0.173404 0.905699
vt 0.164414 0.894046
vt 0.162768 0.434933
vt 0.171674 0.423215
vt 0.183317 0.410523
vt 0.195924 0.398790
vt 0.552554 0.051881
vt 0.573079 0.000000
vt 1.000000 0.168898
vt 0.979475 0.220778
vt 0.526854 0.403955
vt 0.547379 0.352074
vt 0.974300 0.520972
vt 0.953775 0.572852
vn 0.000000 0.000000 1.000000
vn 0.000000 0.000000 1.000000
vn 0.000000 0.000000 1.000000
vn 0.000000 0.000000 1.000000
vn 0.000000 0.000000 -1.000000
vn 0.000000 0.000000 -1.000000
vn 0.000000 0.000000 -1.000000
vn 0.000000 0.000000 -1.000000
vn 1.000000 0.000000 0.000000
vn 1.000000 0.000000 0.000000
vn 1.000000 0.000000 0.000000
vn 1.000000 0.000000 0.000000
vn -1.000000 0.000000 0.000000
vn -1.000000 0.000000 0.000000
vn -1.000000 0.000000 0.000000
vn -1.000000 0.000000 0.000000
vn -0.793976 0.000000 0.607950
vn -0.762697 0.000000 0.646756
vn -0.762697 0.000000 0.646756
vn -0.793976 0.000000 0.607950
vn -0.707107 0.000000 0.707107
vn -0.707107 0.000000 0.707107
vn -0.646753 0.000000 0.762699
vn -0.646753 0.000000 0.762699
vn -0.607945 0.000000 0.793979
vn -0.607945 0.000000 0.793979
vn 0.607945 0.000000 0.793979
vn 0.646753 0.000000 0.762699
vn 0.646753 0.000000 0.762699
vn 0.607945 0.000000 0.793979
vn 0.707107 0.000000 0.707107
vn 0.707107 0.000000 0.707107
vn 0.762697 0.000000 0.646756
vn 0.762697 0.000000 0.646756
vn 0.793976 0.000000 0.607950
vn 0.793976 0.000000 0.607950
vn -0.793976 0.000000 -0.607950
vn -0.762697 0.000000 -0.646756
vn -0.762697 0.000000 -0.646756
vn -0.793976 0.000000 -0.607950
vn -0.707107 0.000000 -0.707107
vn -0.707107 0.000000 -0.707107
vn -0.646753 0.000000 -0.762699
vn -0.646753 0.000000 -0.762699
vn -0.607945 0.000000 -0.793979
vn -0.607945 0.000000 -0.793979
vn 0.607945 0.000000 -0.793979
vn 0.646753 0.000000 -0.762699
vn 0.646753 0.000000 -0.762699
vn 0.607945 0.000000 -0.793979
vn 0.707107 0.000000 -0.707107
vn 0.707107 0.000000 -0.707107
vn 0.762697 0.000000 -0.646756
vn 0.762697 0.000000 -0.646756
vn 0.793976 0.000000 -0.607950
vn 0.793976 0.000000 -0.607950
vn 0.000000 1.000000 -0.000000
vn 0.000000 1.000000 -0.000000
vn 0.000000 1.000000 -0.000000
vn 0.000000 1.000000 -0.000000
vn 0.000000 1.000000 -0.000000
vn 0.000000 1.000000 -0.000000
vn 0.000000 1.000000 -0.000000
vn 0.000000 1.000000 -0.000000
vn 0.000000 1.000000 -0.000000
vn 0.000000 1.000000 -0.000000
vn 0.000000 1.000000 -0.000000
vn 0.000000 1.000000 -0.000000
vn 0.000000 1.000000 -0.000000
vn 0.000000 1.000000 -0.000000
vn 0.000000 1.000000 -0.000000
vn 0.000000 1.000000 -0.000000
vn 0.000000 1.000000 -0.000000
vn 0.000000 1.000000 -0.000000
vn 0.000000 1.000000 -0.000000
vn 0.000000 1.000000 -0.000000
vn 0.000000 -1.000000 -0.000000
vn 0.000000 -1.000000 -0.000000
vn 0.000000 -1.000000 -0.000000
vn 0.000000 -1.000000 -0.000000
vn 0.000000 -1.000000 -0.000000
vn 0.000000 -1.000000 -0.000000
vn 0.000000 -1.000000 -0.000000
vn 0.000000 -1.000000 -0.000000
vn 0.000000 -1.000000 -0.000000
vn 0.000000 -1.000000 -0.000000
vn 0.000000 -1.000000 -0.000000
vn 0.000000 -1.000000 -0.000000
vn 0.000000 -1.000000 -0.000000
vn 0.000000 -1.000000 -0.000000
vn 0.000000 -1.000000 -0.000000
vn 0.000000 -1.000000 -0.000000
vn 0.000000 -1.000000 -0.000000
vn 0.000000 -1.000000 -0.000000
vn 0.000000 -1.000000 -0.000000
vn 0.000000 -1.000000 -0.000000
s off
g pCube1
usemtl initialShadingGroup
f 10/81/1 2/82/2 15/83/3 17/84/4
f 30/85/5 25/86/6 34/87/7 37/88/8
f 16/1/9 11/2/10 36/3/11 35/4/12
f 24/21/13 26/22/14 1/23/15 6/24/16
s 1
f 1/23/17 5/27/18 7/28/19 6/24/20
f 5/27/18 4/31/21 8/32/22 7/28/19
f 4/31/21 3/35/23 9/36/24 8/32/22
f 3/35/23 2/39/25 10/40/26 9/36/24
s 2
f 15/17/27 14/13/28 18/14/29 17/18/30
f 14/13/28 13/9/31 19/10/32 18/14/29
f 13/9/31 12/5/33 20/6/34 19/10/32
f 12/5/33 11/2/35 16/1/36 20/6/34
s 3
f 24/21/37 23/25/38 27/26/39 26/22/40
f 23/25/38 22/29/41 28/30/42 27/26/39
f 22/29/41 21/33/43 29/34/44 28/30/42
f 21/33/43 25/37/45 30/38/46 29/34/44
s 4
f 34/19/47 33/15/48 38/16/49 37/20/50
f 33/15/48 32/11/51 39/12/52 38/16/49
f 32/11/51 31/7/53 40/8/54 39/12/52
f 31/7/53 35/4/55 36/3/56 40/8/54
s off
f 31/41/57 32/42/58 33/43/59 34/44/60 25/45/61 21/46/62 22/47/63 23/48/64 24/49/65 6/50/66 7/51/67 8/52/68 9/53/69 10/54/70 17/55/71 18/56/72 19/57/73 20/58/74 16/59/75 35/60/76
f 36/61/77 11/62/78 12/63/79 13/64/80 14/65/81 15/66/82 2/67/83 3/68/84 4/69/85 5/70/86 1/71/87 26/72/88 27/73/89 28/74/90 29/75/91 30/76/92 37/77/93 38/78/94 39/79/95 40/80/96
