# This file uses centimeters as units for non-parametric coordinates.

mtllib DrinkingGlassUV.mtl
g default
v 1.845820 0.824582 -0.599743
v 1.570148 0.824582 -1.140779
v 1.140779 0.824582 -1.570148
v 0.599743 0.824582 -1.845819
v -0.000000 0.824582 -1.940809
v -0.599743 0.824582 -1.845819
v -1.140779 0.824582 -1.570148
v -1.570148 0.824582 -1.140779
v -1.845819 0.824582 -0.599743
v -1.940809 0.824582 -0.000000
v -1.845819 0.824582 0.599743
v -1.570147 0.824582 1.140779
v -1.140779 0.824582 1.570147
v -0.599743 0.824582 1.845819
v -0.000000 0.824582 1.940808
v 0.599743 0.824582 1.845819
v 1.140779 0.824582 1.570147
v 1.570147 0.824582 1.140779
v 1.845819 0.824582 0.599743
v 1.940808 0.824582 -0.000000
v 2.630613 9.006324 -0.854738
v 2.237733 9.006324 -1.625809
v 1.625809 9.006324 -2.237733
v 0.854738 9.006324 -2.630613
v 0.000000 9.006324 -2.765990
v -0.854738 9.006324 -2.630613
v -1.625808 9.006324 -2.237733
v -2.237733 9.006324 -1.625808
v -2.630612 9.006324 -0.854738
v -2.765989 9.006324 0.000000
v -2.630612 9.006324 0.854738
v -2.237733 9.006324 1.625808
v -1.625808 9.006324 2.237733
v -0.854738 9.006324 2.630612
v 0.000000 9.006324 2.765989
v 0.854738 9.006324 2.630612
v 1.625808 9.006324 2.237732
v 2.237732 9.006324 1.625808
v 2.630612 9.006324 0.854738
v 2.765988 9.006324 0.000000
v 1.845820 0.513703 -0.599743
v 1.570148 0.513703 -1.140779
v -0.000000 0.513704 -0.000000
v 1.140779 0.513703 -1.570148
v 0.599743 0.513703 -1.845819
v -0.000000 0.513703 -1.940809
v -0.599743 0.513703 -1.845819
v -1.140779 0.513703 -1.570148
v -1.570148 0.513703 -1.140779
v -1.845819 0.513703 -0.599743
v -1.940809 0.513703 -0.000000
v -1.845819 0.513703 0.599743
v -1.570147 0.513703 1.140779
v -1.140779 0.513703 1.570147
v -0.599743 0.513703 1.845819
v -0.000000 0.513703 1.940808
v 0.599743 0.513703 1.845819
v 1.140779 0.513703 1.570147
v 1.570147 0.513703 1.140779
v 1.845819 0.513703 0.599743
v 1.940808 0.513703 -0.000000
v 2.304680 9.006324 -0.748836
v 1.960478 9.006324 -1.424371
v 1.424371 9.006324 -1.960478
v 0.748836 9.006324 -2.304680
v 0.000000 9.006324 -2.423283
v -0.748836 9.006324 -2.304680
v -1.424371 9.006324 -1.960478
v -1.960478 9.006324 -1.424371
v -2.304679 9.006324 -0.748836
v -2.423283 9.006324 0.000000
v -2.304679 9.006324 0.748836
v -1.960478 9.006324 1.424370
v -1.424370 9.006324 1.960478
v -0.748836 9.006324 2.304679
v -0.000000 9.006324 2.423282
v 0.748836 9.006324 2.304679
v 1.424370 9.006324 1.960477
v 1.960477 9.006324 1.424370
v 2.304679 9.006324 0.748836
v 2.423282 9.006324 0.000000
v 1.614293 1.145786 -0.524516
v 1.373200 1.145786 -0.997688
v -0.000000 1.145786 -0.000000
v 0.997688 1.145786 -1.373200
v 0.524515 1.145786 -1.614293
v -0.000000 1.145786 -1.697367
v -0.524515 1.145786 -1.614293
v -0.997688 1.145786 -1.373200
v -1.373200 1.145786 -0.997688
v -1.614292 1.145786 -0.524516
v -1.697367 1.145786 -0.000000
v -1.614292 1.145786 0.524515
v -1.373200 1.145786 0.997687
v -0.997688 1.145786 1.373199
v -0.524515 1.145786 1.614292
v -0.000000 1.145786 1.697366
v 0.524515 1.145786 1.614292
v 0.997688 1.145786 1.373199
v 1.373199 1.145786 0.997687
v 1.614292 1.145786 0.524515
v 1.697366 1.145786 -0.000000
vt 0.056688 0.509414
vt 0.065600 0.482494
vt 0.431421 0.597460
vt 0.418757 0.635708
vt 0.043003 0.504647
vt 0.051776 0.478151
vt 0.073675 0.455310
vt 0.442890 0.558839
vt 0.046952 0.536044
vt 0.404913 0.673548
vt 0.033413 0.530866
vt 0.059723 0.451398
vt 0.036415 0.562364
vt 0.389899 0.710943
vt 0.023018 0.556802
vt 0.025121 0.588362
vt 0.373729 0.747861
vt 0.011841 0.582486
vt 0.013161 0.614044
vt 0.356413 0.784270
vt 0.000000 0.608078
vt 0.101209 0.316351
vt 0.104109 0.288141
vt 0.486109 0.321366
vt 0.481991 0.361441
vt 0.086820 0.314643
vt 0.089674 0.286880
vt 0.106133 0.259854
vt 0.488982 0.281182
vt 0.097434 0.344459
vt 0.476631 0.401367
vt 0.083105 0.342304
vt 0.091665 0.259042
vt 0.107277 0.231519
vt 0.490605 0.240927
vt 0.092791 0.231156
vt 0.107541 0.203164
vt 0.490978 0.200640
vt 0.093051 0.203249
vt 0.106927 0.174815
vt 0.490101 0.160357
vt 0.092446 0.175346
vt 0.865430 0.219222
vt 0.881065 0.250919
vt 0.548727 0.408941
vt 0.537776 0.386739
vt 0.895781 0.283053
vt 0.559035 0.431449
vt 0.848890 0.187987
vt 0.526191 0.364861
vt 0.831459 0.157242
vt 0.513981 0.343325
vt 0.813150 0.127010
vt 0.501157 0.322150
vt 0.793979 0.097318
vt 0.487729 0.301352
vt 0.955188 0.449331
vt 0.964166 0.483515
vt 0.606935 0.571861
vt 0.600646 0.547917
vt 0.972157 0.517944
vt 0.612532 0.595976
vt 0.945231 0.415419
vt 0.593672 0.524163
vt 0.979154 0.552588
vt 0.617433 0.620242
vt 0.985151 0.587419
vt 0.621633 0.644639
vt 0.990144 0.622408
vt 0.625131 0.669147
vt 0.656088 0.037296
vt 0.668939 0.062518
vt 0.582893 0.090476
vt 0.673367 0.090476
vt 0.636072 0.017281
vt 0.668939 0.118434
vt 0.610851 0.004430
vt 0.656088 0.143656
vt 0.582893 0.000001
vt 0.636072 0.163671
vt 0.554935 0.004430
vt 0.610851 0.176522
vt 0.529713 0.017281
vt 0.582893 0.180951
vt 0.509697 0.037296
vt 0.554935 0.176522
vt 0.496846 0.062518
vt 0.529713 0.163671
vt 0.492418 0.090476
vt 0.509697 0.143656
vt 0.496846 0.118434
vt 0.956317 0.103577
vt 0.945079 0.125635
vt 0.881064 0.079126
vt 0.927573 0.143140
vt 0.960190 0.079126
vt 0.905515 0.154379
vt 0.956317 0.054675
vt 0.881064 0.158252
vt 0.945078 0.032617
vt 0.856613 0.154379
vt 0.927573 0.015112
vt 0.834555 0.143140
vt 0.905515 0.003873
vt 0.817050 0.125635
vt 0.881064 -0.000000
vt 0.805811 0.103577
vt 0.856613 0.003873
vt 0.801938 0.079126
vt 0.834555 0.015112
vt 0.805811 0.054675
vt 0.817050 0.032617
vt 0.622059 0.830260
vt 0.603744 0.866205
vt 0.590819 0.856814
vt 0.606865 0.825323
vt 0.575218 0.894731
vt 0.565828 0.881806
vt 0.628370 0.790414
vt 0.612394 0.790414
vt 0.539273 0.913046
vt 0.534336 0.897852
vt 0.622059 0.750569
vt 0.606865 0.755506
vt 0.499428 0.919356
vt 0.499428 0.903380
vt 0.603744 0.714624
vt 0.590819 0.724015
vt 0.459583 0.913046
vt 0.464520 0.897852
vt 0.575218 0.686098
vt 0.565828 0.699023
vt 0.423638 0.894731
vt 0.433028 0.881806
vt 0.539273 0.667783
vt 0.534336 0.682977
vt 0.395112 0.866205
vt 0.408037 0.856814
vt 0.499428 0.661473
vt 0.499428 0.677449
vt 0.376797 0.830260
vt 0.391991 0.825323
vt 0.459583 0.667783
vt 0.464520 0.682977
vt 0.370486 0.790414
vt 0.386462 0.790414
vt 0.423638 0.686098
vt 0.433028 0.699023
vt 0.376797 0.750569
vt 0.391991 0.755506
vt 0.395112 0.714624
vt 0.408037 0.724015
vt 0.080903 0.427888
vt 0.453155 0.519882
vt 0.066836 0.424410
vt 0.087276 0.400254
vt 0.462206 0.480626
vt 0.073108 0.397215
vt 0.092788 0.372435
vt 0.470034 0.441108
vt 0.078533 0.369837
vt 0.105440 0.146502
vt 0.487973 0.120117
vt 0.090980 0.147468
vt 0.103094 0.118253
vt 0.484596 0.079957
vt 0.088664 0.119625
vt 0.099927 0.090095
vt 0.479968 0.039909
vt 0.085531 0.091800
vt 0.096022 0.062055
vt 0.474084 0.000000
vt 0.081732 0.063904
vt 0.909567 0.315598
vt 0.568691 0.454244
vt 0.922411 0.348525
vt 0.577688 0.477308
vt 0.934302 0.381808
vt 0.586017 0.500620
vt 0.994128 0.657526
vt 0.627921 0.693745
vt 0.997100 0.692745
vt 0.630003 0.718413
vt 0.999058 0.728034
vt 0.631375 0.743132
vt 1.000000 0.763365
vt 0.632034 0.767879
vn 0.946256 -0.100347 -0.307456
vn 0.804933 -0.100347 -0.584818
vn 0.804933 -0.100347 -0.584818
vn 0.946256 -0.100347 -0.307456
vn 0.584818 -0.100347 -0.804934
vn 0.584818 -0.100347 -0.804934
vn 0.307457 -0.100347 -0.946256
vn 0.307457 -0.100347 -0.946256
vn -0.000000 -0.100347 -0.994953
vn 0.000000 -0.100347 -0.994952
vn -0.307457 -0.100347 -0.946256
vn -0.307457 -0.100347 -0.946256
vn -0.584818 -0.100347 -0.804933
vn -0.584819 -0.100347 -0.804933
vn -0.804934 -0.100347 -0.584818
vn -0.804934 -0.100347 -0.584818
vn -0.946256 -0.100347 -0.307457
vn -0.946256 -0.100347 -0.307457
vn -0.994952 -0.100347 -0.000000
vn -0.994953 -0.100347 0.000000
vn -0.946256 -0.100347 0.307457
vn -0.946256 -0.100347 0.307457
vn -0.804933 -0.100347 0.584818
vn -0.804933 -0.100347 0.584818
vn -0.584818 -0.100347 0.804934
vn -0.584818 -0.100347 0.804934
vn -0.307457 -0.100347 0.946256
vn -0.307457 -0.100347 0.946256
vn 0.000000 -0.100347 0.994952
vn 0.000000 -0.100347 0.994953
vn 0.307457 -0.100347 0.946256
vn 0.307457 -0.100347 0.946256
vn 0.584818 -0.100347 0.804934
vn 0.584818 -0.100347 0.804934
vn 0.804934 -0.100347 0.584818
vn 0.804934 -0.100347 0.584818
vn 0.946256 -0.100347 0.307457
vn 0.946256 -0.100347 0.307457
vn 0.994952 -0.100347 0.000001
vn 0.994952 -0.100347 0.000001
vn -0.000000 -1.000000 -0.000000
vn -0.000000 -1.000000 -0.000000
vn 0.000000 -1.000000 -0.000000
vn -0.000000 -1.000000 0.000000
vn -0.000000 -1.000000 0.000000
vn 0.000000 -1.000000 0.000000
vn 0.000000 -1.000000 0.000000
vn 0.000000 -1.000000 0.000000
vn 0.000000 -1.000000 0.000000
vn 0.000000 -1.000000 0.000000
vn 0.000000 -1.000000 0.000000
vn 0.000000 -1.000000 0.000000
vn 0.000000 -1.000000 -0.000000
vn 0.000000 -1.000000 -0.000001
vn 0.000000 -1.000000 -0.000000
vn -0.000000 -1.000000 -0.000000
vn -0.000000 -1.000000 -0.000000
vn -0.000000 -1.000000 0.000000
vn -0.000000 -1.000000 0.000000
vn -0.000000 -1.000000 0.000000
vn -0.000000 -1.000000 0.000000
vn 0.000000 1.000000 0.000000
vn 0.000000 1.000000 -0.000000
vn 0.000000 1.000000 -0.000000
vn 0.000000 1.000000 -0.000000
vn 0.000000 1.000000 0.000000
vn 0.000000 1.000000 0.000000
vn 0.000000 1.000000 0.000000
vn 0.000000 1.000000 0.000000
vn 0.000000 1.000000 0.000000
vn 0.000000 1.000000 -0.000000
vn 0.000000 1.000000 -0.000000
vn 0.000000 1.000000 0.000000
vn 0.000000 1.000000 0.000000
vn 0.000000 1.000000 0.000000
vn 0.000000 1.000000 -0.000000
vn 0.000000 1.000000 -0.000000
vn 0.000000 1.000000 0.000000
vn 0.000000 1.000000 0.000000
vn 0.000000 1.000000 0.000000
vn 0.000000 1.000000 0.000000
vn 0.000000 1.000000 0.000000
vn 0.891006 0.000000 -0.453991
vn 0.891006 0.000000 -0.453991
vn 0.891006 0.000000 -0.453991
vn 0.891006 0.000000 -0.453991
vn 0.707106 0.000000 -0.707107
vn 0.707106 0.000000 -0.707107
vn 0.707106 0.000000 -0.707107
vn 0.707106 0.000000 -0.707107
vn 0.453990 0.000000 -0.891007
vn 0.453990 0.000000 -0.891007
vn 0.453990 0.000000 -0.891007
vn 0.453990 0.000000 -0.891007
vn 0.156434 0.000000 -0.987688
vn 0.156434 0.000000 -0.987688
vn 0.156434 0.000000 -0.987688
vn 0.156434 0.000000 -0.987688
vn -0.156434 0.000000 -0.987688
vn -0.156434 0.000000 -0.987688
vn -0.156434 0.000000 -0.987688
vn -0.156434 0.000000 -0.987688
vn -0.453991 0.000000 -0.891006
vn -0.453991 0.000000 -0.891006
vn -0.453991 0.000000 -0.891006
vn -0.453991 0.000000 -0.891006
vn -0.707107 0.000000 -0.707107
vn -0.707107 0.000000 -0.707107
vn -0.707107 0.000000 -0.707107
vn -0.707107 0.000000 -0.707107
vn -0.891006 0.000000 -0.453991
vn -0.891006 0.000000 -0.453991
vn -0.891006 0.000000 -0.453991
vn -0.891006 0.000000 -0.453991
vn -0.987688 0.000000 -0.156434
vn -0.987688 0.000000 -0.156434
vn -0.987688 0.000000 -0.156434
vn -0.987688 0.000000 -0.156434
vn -0.987688 0.000000 0.156434
vn -0.987688 0.000000 0.156434
vn -0.987688 0.000000 0.156434
vn -0.987688 0.000000 0.156434
vn -0.891006 0.000000 0.453991
vn -0.891006 0.000000 0.453991
vn -0.891006 0.000000 0.453991
vn -0.891006 0.000000 0.453991
vn -0.707107 0.000000 0.707107
vn -0.707107 0.000000 0.707107
vn -0.707107 0.000000 0.707107
vn -0.707107 0.000000 0.707107
vn -0.453991 0.000000 0.891006
vn -0.453991 0.000000 0.891006
vn -0.453991 0.000000 0.891006
vn -0.453991 0.000000 0.891006
vn -0.156434 0.000000 0.987688
vn -0.156434 0.000000 0.987688
vn -0.156434 0.000000 0.987688
vn -0.156434 0.000000 0.987688
vn 0.156434 0.000000 0.987688
vn 0.156434 0.000000 0.987688
vn 0.156434 0.000000 0.987688
vn 0.156434 0.000000 0.987688
vn 0.453990 0.000000 0.891007
vn 0.453990 0.000000 0.891007
vn 0.453990 0.000000 0.891007
vn 0.453990 0.000000 0.891007
vn 0.707107 0.000000 0.707107
vn 0.707107 0.000000 0.707107
vn 0.707107 0.000000 0.707107
vn 0.707107 0.000000 0.707107
vn 0.891006 0.000000 0.453991
vn 0.891006 0.000000 0.453991
vn 0.891006 0.000000 0.453991
vn 0.891006 0.000000 0.453991
vn 0.987688 0.000000 0.156434
vn 0.987688 0.000000 0.156434
vn 0.987688 0.000000 0.156434
vn 0.987688 0.000000 0.156434
vn 0.987689 0.000000 -0.156432
vn 0.987689 0.000000 -0.156432
vn 0.987689 0.000000 -0.156432
vn 0.987689 0.000000 -0.156432
vn 0.000000 1.000000 -0.000001
vn 0.000000 1.000000 -0.000001
vn 0.000000 1.000000 -0.000001
vn 0.000000 1.000000 -0.000001
vn 0.000000 1.000000 0.000000
vn 0.000000 1.000000 0.000000
vn 0.000000 1.000000 0.000000
vn 0.000000 1.000000 0.000000
vn 0.000000 1.000000 -0.000000
vn 0.000000 1.000000 -0.000000
vn 0.000000 1.000000 -0.000000
vn 0.000000 1.000000 -0.000000
vn 0.000000 1.000000 0.000001
vn 0.000000 1.000000 0.000001
vn 0.000000 1.000000 0.000001
vn 0.000000 1.000000 0.000001
vn 0.000000 1.000000 -0.000001
vn 0.000000 1.000000 -0.000001
vn 0.000000 1.000000 -0.000001
vn 0.000000 1.000000 -0.000001
vn 0.000000 1.000000 0.000000
vn 0.000000 1.000000 0.000000
vn 0.000000 1.000000 0.000000
vn 0.000000 1.000000 0.000000
vn 0.000000 1.000000 0.000001
vn 0.000000 1.000000 0.000001
vn 0.000000 1.000000 0.000001
vn 0.000000 1.000000 0.000001
vn 0.000000 1.000000 -0.000001
vn 0.000000 1.000000 -0.000001
vn 0.000000 1.000000 -0.000001
vn 0.000000 1.000000 -0.000001
vn 0.000000 1.000000 0.000000
vn 0.000000 1.000000 0.000000
vn 0.000000 1.000000 0.000000
vn 0.000000 1.000000 0.000000
vn 0.000000 1.000000 -0.000001
vn 0.000000 1.000000 -0.000001
vn 0.000000 1.000000 -0.000001
vn 0.000000 1.000000 -0.000001
vn 0.000000 1.000000 0.000000
vn 0.000000 1.000000 0.000000
vn 0.000000 1.000000 0.000000
vn 0.000000 1.000000 0.000000
vn 0.000000 1.000000 -0.000001
vn 0.000000 1.000000 -0.000001
vn 0.000000 1.000000 -0.000001
vn 0.000000 1.000000 -0.000001
vn 0.000000 1.000000 0.000000
vn 0.000000 1.000000 0.000000
vn 0.000000 1.000000 0.000000
vn 0.000000 1.000000 0.000000
vn 0.000000 1.000000 0.000001
vn 0.000000 1.000000 0.000001
vn 0.000000 1.000000 0.000001
vn 0.000000 1.000000 0.000001
vn 0.000000 1.000000 -0.000001
vn 0.000000 1.000000 -0.000001
vn 0.000000 1.000000 -0.000001
vn 0.000000 1.000000 -0.000001
vn 0.000000 1.000000 -0.000001
vn 0.000000 1.000000 -0.000001
vn 0.000000 1.000000 -0.000001
vn 0.000000 1.000000 -0.000001
vn 0.000000 1.000000 0.000001
vn 0.000000 1.000000 0.000001
vn 0.000000 1.000000 0.000001
vn 0.000000 1.000000 0.000001
vn 0.000000 1.000000 0.000000
vn 0.000000 1.000000 0.000000
vn 0.000000 1.000000 0.000000
vn 0.000000 1.000000 0.000000
vn 0.000000 1.000000 0.000000
vn 0.000000 1.000000 0.000000
vn 0.000000 1.000000 0.000000
vn 0.000000 1.000000 0.000000
vn 0.000000 1.000000 0.000001
vn 0.000000 1.000000 0.000001
vn 0.000000 1.000000 0.000001
vn 0.000000 1.000000 0.000001
vn -0.887323 0.090835 0.452113
vn -0.887323 0.090835 0.452113
vn -0.887323 0.090835 0.452113
vn -0.887323 0.090835 0.452113
vn -0.704184 0.090835 0.704184
vn -0.704184 0.090835 0.704184
vn -0.704184 0.090835 0.704184
vn -0.704184 0.090835 0.704184
vn -0.452113 0.090835 0.887323
vn -0.452113 0.090835 0.887323
vn -0.452113 0.090835 0.887323
vn -0.452113 0.090835 0.887323
vn -0.155787 0.090835 0.983605
vn -0.155787 0.090835 0.983605
vn -0.155787 0.090835 0.983605
vn -0.155787 0.090835 0.983605
vn 0.155787 0.090835 0.983605
vn 0.155787 0.090835 0.983605
vn 0.155787 0.090835 0.983605
vn 0.155787 0.090835 0.983605
vn 0.452113 0.090835 0.887323
vn 0.452113 0.090835 0.887323
vn 0.452113 0.090835 0.887323
vn 0.452113 0.090835 0.887323
vn 0.704183 0.090835 0.704184
vn 0.704183 0.090835 0.704184
vn 0.704183 0.090835 0.704184
vn 0.704183 0.090835 0.704184
vn 0.887324 0.090835 0.452112
vn 0.887324 0.090835 0.452113
vn 0.887324 0.090835 0.452112
vn 0.887324 0.090835 0.452112
vn 0.983605 0.090835 0.155787
vn 0.983605 0.090835 0.155787
vn 0.983605 0.090835 0.155787
vn 0.983605 0.090835 0.155787
vn 0.983605 0.090835 -0.155787
vn 0.983605 0.090835 -0.155787
vn 0.983605 0.090835 -0.155787
vn 0.983605 0.090835 -0.155787
vn 0.887324 0.090835 -0.452113
vn 0.887323 0.090835 -0.452113
vn 0.887324 0.090835 -0.452113
vn 0.887323 0.090835 -0.452113
vn 0.704184 0.090835 -0.704184
vn 0.704184 0.090835 -0.704184
vn 0.704184 0.090835 -0.704184
vn 0.704184 0.090835 -0.704184
vn 0.452113 0.090835 -0.887323
vn 0.452113 0.090835 -0.887323
vn 0.452113 0.090835 -0.887323
vn 0.452113 0.090835 -0.887323
vn 0.155787 0.090835 -0.983605
vn 0.155787 0.090835 -0.983605
vn 0.155787 0.090835 -0.983605
vn 0.155787 0.090835 -0.983605
vn -0.155787 0.090835 -0.983605
vn -0.155787 0.090835 -0.983605
vn -0.155787 0.090835 -0.983605
vn -0.155787 0.090835 -0.983605
vn -0.452113 0.090835 -0.887323
vn -0.452113 0.090835 -0.887323
vn -0.452113 0.090835 -0.887323
vn -0.452113 0.090835 -0.887323
vn -0.704184 0.090835 -0.704184
vn -0.704184 0.090835 -0.704184
vn -0.704184 0.090835 -0.704184
vn -0.704184 0.090835 -0.704184
vn -0.887323 0.090835 -0.452113
vn -0.887323 0.090835 -0.452113
vn -0.887323 0.090835 -0.452113
vn -0.887323 0.090835 -0.452113
vn -0.983605 0.090835 -0.155787
vn -0.983605 0.090835 -0.155787
vn -0.983605 0.090835 -0.155787
vn -0.983605 0.090835 -0.155787
vn -0.983606 0.090835 0.155785
vn -0.983606 0.090835 0.155785
vn -0.983606 0.090835 0.155785
vn -0.983606 0.090835 0.155785
s 1
g pCylinder1
usemtl initialShadingGroup
f 1/1/1 2/2/2 22/3/3 21/4/4
f 2/2/2 3/7/5 23/8/6 22/3/3
f 3/7/5 4/153/7 24/154/8 23/8/6
f 4/153/7 5/156/9 25/157/10 24/154/8
f 5/156/9 6/159/11 26/160/12 25/157/10
f 6/159/11 7/30/13 27/31/14 26/160/12
f 7/30/13 8/22/15 28/25/16 27/31/14
f 8/22/15 9/23/17 29/24/18 28/25/16
f 9/23/17 10/28/19 30/29/20 29/24/18
f 10/28/19 11/34/21 31/35/22 30/29/20
f 11/34/21 12/37/23 32/38/24 31/35/22
f 12/37/23 13/40/25 33/41/26 32/38/24
f 13/40/25 14/162/27 34/163/28 33/41/26
f 14/162/27 15/165/29 35/166/30 34/163/28
f 15/165/29 16/168/31 36/169/32 35/166/30
f 16/168/31 17/171/33 37/172/34 36/169/32
f 17/19/33 18/16/35 38/17/36 37/20/34
f 18/16/35 19/13/37 39/14/38 38/17/36
f 19/13/37 20/9/39 40/10/40 39/14/38
f 20/9/39 1/1/1 21/4/4 40/10/40
s 2
f 42/71/41 41/72/42 43/73/43
f 44/75/44 42/71/41 43/73/43
f 45/77/45 44/75/44 43/73/43
f 46/79/46 45/77/45 43/73/43
f 47/81/47 46/79/46 43/73/43
f 48/83/48 47/81/47 43/73/43
f 49/85/49 48/83/48 43/73/43
f 50/87/50 49/85/49 43/73/43
f 51/89/51 50/87/50 43/73/43
f 52/91/52 51/89/51 43/73/43
f 53/90/53 52/91/52 43/73/43
f 54/88/54 53/90/53 43/73/43
f 55/86/55 54/88/54 43/73/43
f 56/84/56 55/86/55 43/73/43
f 57/82/57 56/84/56 43/73/43
f 58/80/58 57/82/57 43/73/43
f 59/78/59 58/80/58 43/73/43
f 60/76/60 59/78/59 43/73/43
f 61/74/61 60/76/60 43/73/43
f 41/72/42 61/74/61 43/73/43
s 3
f 82/92/62 83/93/63 84/94/64
f 83/93/63 85/95/65 84/94/64
f 85/95/65 86/97/66 84/94/64
f 86/97/66 87/99/67 84/94/64
f 87/99/67 88/101/68 84/94/64
f 88/101/68 89/103/69 84/94/64
f 89/103/69 90/105/70 84/94/64
f 90/105/70 91/107/71 84/94/64
f 91/107/71 92/109/72 84/94/64
f 92/109/72 93/111/73 84/94/64
f 93/111/73 94/112/74 84/94/64
f 94/112/74 95/110/75 84/94/64
f 95/110/75 96/108/76 84/94/64
f 96/108/76 97/106/77 84/94/64
f 97/106/77 98/104/78 84/94/64
f 98/104/78 99/102/79 84/94/64
f 99/102/79 100/100/80 84/94/64
f 100/100/80 101/98/81 84/94/64
f 101/98/81 102/96/82 84/94/64
f 102/96/82 82/92/62 84/94/64
s off
f 2/2/83 1/1/84 41/5/85 42/6/86
f 3/7/87 2/2/88 42/6/89 44/12/90
f 4/153/91 3/7/92 44/12/93 45/155/94
f 5/156/95 4/153/96 45/155/97 46/158/98
f 6/159/99 5/156/100 46/158/101 47/161/102
f 7/30/103 6/159/104 47/161/105 48/32/106
f 8/22/107 7/30/108 48/32/109 49/26/110
f 9/23/111 8/22/112 49/26/113 50/27/114
f 10/28/115 9/23/116 50/27/117 51/33/118
f 11/34/119 10/28/120 51/33/121 52/36/122
f 12/37/123 11/34/124 52/36/125 53/39/126
f 13/40/127 12/37/128 53/39/129 54/42/130
f 14/162/131 13/40/132 54/42/133 55/164/134
f 15/165/135 14/162/136 55/164/137 56/167/138
f 16/168/139 15/165/140 56/167/141 57/170/142
f 17/171/143 16/168/144 57/170/145 58/173/146
f 18/16/147 17/19/148 58/21/149 59/18/150
f 19/13/151 18/16/152 59/18/153 60/15/154
f 20/9/155 19/13/156 60/15/157 61/11/158
f 1/1/159 20/9/160 61/11/161 41/5/162
f 21/113/163 22/114/164 63/115/165 62/116/166
f 22/114/167 23/117/168 64/118/169 63/115/170
f 23/117/171 24/121/172 65/122/173 64/118/174
f 24/121/175 25/125/176 66/126/177 65/122/178
f 25/125/179 26/129/180 67/130/181 66/126/182
f 26/129/183 27/133/184 68/134/185 67/130/186
f 27/133/187 28/137/188 69/138/189 68/134/190
f 28/137/191 29/141/192 70/142/193 69/138/194
f 29/141/195 30/145/196 71/146/197 70/142/198
f 30/145/199 31/149/200 72/150/201 71/146/202
f 31/149/203 32/151/204 73/152/205 72/150/206
f 32/151/207 33/147/208 74/148/209 73/152/210
f 33/147/211 34/143/212 75/144/213 74/148/214
f 34/143/215 35/139/216 76/140/217 75/144/218
f 35/139/219 36/135/220 77/136/221 76/140/222
f 36/135/223 37/131/224 78/132/225 77/136/226
f 37/131/227 38/127/228 79/128/229 78/132/230
f 38/127/231 39/123/232 80/124/233 79/128/234
f 39/123/235 40/119/236 81/120/237 80/124/238
f 40/119/239 21/113/240 62/116/241 81/120/242
f 62/43/243 63/44/244 83/45/245 82/46/246
f 63/44/247 64/47/248 85/48/249 83/45/250
f 64/47/251 65/174/252 86/175/253 85/48/254
f 65/174/255 66/176/256 87/177/257 86/175/258
f 66/176/259 67/178/260 88/179/261 87/177/262
f 67/178/263 68/63/264 89/64/265 88/179/266
f 68/63/267 69/57/268 90/60/269 89/64/270
f 69/57/271 70/58/272 91/59/273 90/60/274
f 70/58/275 71/61/276 92/62/277 91/59/278
f 71/61/279 72/65/280 93/66/281 92/62/282
f 72/65/283 73/67/284 94/68/285 93/66/286
f 73/67/287 74/69/288 95/70/289 94/68/290
f 74/69/291 75/180/292 96/181/293 95/70/294
f 75/180/295 76/182/296 97/183/297 96/181/298
f 76/182/299 77/184/300 98/185/301 97/183/302
f 77/184/303 78/186/304 99/187/305 98/185/306
f 78/55/307 79/53/308 100/54/309 99/56/310
f 79/53/311 80/51/312 101/52/313 100/54/314
f 80/51/315 81/49/316 102/50/317 101/52/318
f 81/49/319 62/43/320 82/46/321 102/50/322
