# This file uses centimeters as units for non-parametric coordinates.

mtllib CookBookUV.mtl
g default
v -0.330827 7.321592 -2.383694
v 0.330827 7.321592 -2.383694
v -0.330827 0.123101 -2.383694
v 0.330827 0.123101 -2.383694
v -0.650591 0.123101 2.004342
v -0.313584 0.123101 2.383694
v -0.387819 0.123101 2.353708
v -0.461595 0.123101 2.304502
v -0.529388 0.123101 2.239758
v -0.586126 0.123101 2.164323
v -0.627560 0.123101 2.083843
v -0.650591 7.321592 2.004342
v -0.627560 7.321592 2.083843
v -0.586126 7.321592 2.164323
v -0.529388 7.321592 2.239758
v -0.461595 7.321592 2.304502
v -0.387819 7.321592 2.353708
v -0.313584 7.321592 2.383694
v 0.650591 0.123101 2.004342
v 0.627560 0.123101 2.083843
v 0.586126 0.123101 2.164323
v 0.529388 0.123101 2.239758
v 0.461595 0.123101 2.304502
v 0.387819 0.123101 2.353708
v 0.313584 0.123101 2.383694
v 0.650591 7.321592 2.004342
v 0.313584 7.321592 2.383694
v 0.387819 7.321592 2.353708
v 0.461595 7.321592 2.304502
v 0.529388 7.321592 2.239758
v 0.586126 7.321592 2.164323
v 0.627560 7.321592 2.083843
v 0.532420 7.321592 1.878217
v 0.270737 7.321592 -2.205560
v -0.270737 7.321592 -2.205560
v -0.532420 7.321592 1.878217
v -0.513573 7.321592 1.943278
v -0.479664 7.321592 2.009140
v -0.433232 7.321592 2.070874
v -0.377753 7.321592 2.123857
v -0.317378 7.321592 2.164126
v -0.256626 7.321592 2.188665
v 0.256626 7.321592 2.188665
v 0.317378 7.321592 2.164126
v 0.377753 7.321592 2.123857
v 0.433232 7.321592 2.070874
v 0.479664 7.321592 2.009140
v 0.513573 7.321592 1.943278
v 0.532420 7.166069 1.878217
v 0.270737 7.166069 -2.205560
v -0.270737 7.166069 -2.205560
v -0.532420 7.166069 1.878217
v -0.513573 7.166069 1.943278
v -0.479664 7.166069 2.009140
v -0.433232 7.166069 2.070874
v -0.377753 7.166069 2.123857
v -0.317378 7.166069 2.164126
v -0.256626 7.166069 2.188665
v 0.256626 7.166069 2.188665
v 0.317378 7.166069 2.164126
v 0.377753 7.166069 2.123857
v 0.433232 7.166069 2.070874
v 0.479664 7.166069 2.009140
v 0.513573 7.166069 1.943278
v -0.231598 0.123101 -2.383694
v 0.255093 0.123101 -2.383694
vt 0.399881 0.581362
vt 0.399881 0.000002
vt 0.755204 0.000002
vt 0.755205 0.581362
vt 0.393197 0.000002
vt 0.393197 0.581362
vt 0.000000 0.017266
vt 0.354919 0.000321
vt 0.382643 0.581019
vt 0.027724 0.597964
vt 0.361596 0.000002
vt 0.389320 0.580700
vt 0.392217 0.005473
vt 0.392199 0.335961
vt 0.379638 0.335960
vt 0.379657 0.005473
vt 0.392217 0.000003
vt 0.379657 0.000002
vt 0.910138 0.000440
vt 0.898567 0.330725
vt 0.886014 0.330285
vt 0.897585 0.000000
vt 0.898375 0.336192
vt 0.885823 0.335752
vt 0.384235 0.966376
vt 0.378242 0.963950
vt 0.372287 0.959971
vt 0.366815 0.954739
vt 0.362238 0.948643
vt 0.358896 0.942141
vt 0.357041 0.935719
vt 0.383124 0.581354
vt 0.391138 0.581360
vt 0.430444 0.581389
vt 0.436560 0.581394
vt 0.462126 0.935796
vt 0.460261 0.942215
vt 0.456910 0.948712
vt 0.452323 0.954801
vt 0.446845 0.960026
vt 0.440883 0.963996
vt 0.434886 0.966413
vt 0.533428 0.606370
vt 0.513239 0.936240
vt 0.469509 0.936366
vt 0.447431 0.606616
vt 0.448938 0.601358
vt 0.451661 0.596031
vt 0.455397 0.591034
vt 0.459865 0.586742
vt 0.464732 0.583476
vt 0.469632 0.581480
vt 0.511083 0.581362
vt 0.515995 0.583329
vt 0.520880 0.586568
vt 0.525373 0.590834
vt 0.529137 0.595809
vt 0.531891 0.601120
vt 0.787530 0.611962
vt 0.762165 0.966379
vt 0.757293 0.951999
vt 0.778000 0.622161
vt 0.785662 0.605544
vt 0.776471 0.616908
vt 0.782307 0.599049
vt 0.773725 0.611593
vt 0.777717 0.592963
vt 0.769969 0.606612
vt 0.772235 0.587741
vt 0.765483 0.602339
vt 0.766272 0.583775
vt 0.760603 0.599093
vt 0.760273 0.581361
vt 0.755694 0.597117
vt 0.709622 0.581426
vt 0.714243 0.597171
vt 0.703630 0.583856
vt 0.709339 0.599159
vt 0.697677 0.587837
vt 0.704467 0.602418
vt 0.692209 0.593073
vt 0.699992 0.606703
vt 0.687634 0.599171
vt 0.696249 0.611693
vt 0.684297 0.605675
vt 0.693517 0.617016
vt 0.682445 0.612099
vt 0.692002 0.622272
vt 0.708729 0.966448
vt 0.713563 0.952056
vt 0.801547 0.582245
vt 0.795407 0.000918
vt 0.846055 0.000383
vt 0.852195 0.581710
vt 0.788941 0.000986
vt 0.795081 0.582314
vt 0.852520 0.000315
vt 0.858660 0.581642
vt 0.781780 0.001062
vt 0.787920 0.582389
vt 0.859682 0.000239
vt 0.865822 0.581566
vt 0.774209 0.001142
vt 0.780349 0.582469
vt 0.867252 0.000159
vt 0.873392 0.581486
vt 0.766587 0.001223
vt 0.772727 0.582550
vt 0.874875 0.000079
vt 0.881015 0.581406
vt 0.759277 0.001300
vt 0.765417 0.582627
vt 0.882185 0.000002
vt 0.888325 0.581329
vt 0.908420 0.096596
vt 0.910089 0.090851
vt 0.922151 0.094355
vt 0.920482 0.100100
vt 0.911830 0.084860
vt 0.923891 0.088365
vt 0.913559 0.078910
vt 0.925620 0.082415
vt 0.915194 0.073282
vt 0.927255 0.076787
vt 0.916670 0.068201
vt 0.928732 0.071705
vt 0.928236 0.028396
vt 0.940297 0.031901
vt 0.929712 0.023315
vt 0.941774 0.026819
vt 0.931347 0.017686
vt 0.943409 0.021191
vt 0.933076 0.011737
vt 0.945138 0.015241
vt 0.934817 0.005746
vt 0.946878 0.009251
vt 0.936486 0.000001
vt 0.948547 0.003506
vt 0.966146 0.959194
vt 0.958135 0.958979
vt 0.963413 0.377643
vt 0.978595 0.377781
vt 0.928937 0.307278
vt 0.972207 0.313611
vt 0.888558 0.876411
vt 0.849667 0.870719
vt 0.984824 0.000001
vt 1.000000 0.000453
vt 0.986847 0.581664
vt 0.980732 0.581526
vn -0.042712 0.000000 0.999087
vn -0.042712 0.000000 0.999087
vn 0.042712 0.000000 0.999087
vn 0.042712 0.000000 0.999087
vn 0.997802 0.000000 -0.066274
vn 0.997802 0.000000 -0.066274
vn 0.997355 0.000000 -0.072679
vn 0.997355 0.000000 -0.072679
vn -0.997355 0.000000 -0.072679
vn -0.997802 0.000000 -0.066274
vn -0.997802 0.000000 -0.066274
vn -0.997355 0.000000 -0.072679
vn -0.927530 0.000000 0.373750
vn -0.927530 0.000000 0.373750
vn -0.846225 0.000000 0.532825
vn -0.846225 0.000000 0.532825
vn -0.747600 0.000000 0.664149
vn -0.747600 0.000000 0.664149
vn -0.627023 0.000000 0.779001
vn -0.627023 0.000000 0.779001
vn -0.471761 0.000000 0.881726
vn -0.471761 0.000000 0.881726
vn 0.471761 0.000000 0.881726
vn 0.471761 0.000000 0.881726
vn 0.627023 0.000000 0.779001
vn 0.627023 0.000000 0.779001
vn 0.747600 0.000000 0.664149
vn 0.747600 0.000000 0.664149
vn 0.846225 0.000000 0.532825
vn 0.846225 0.000000 0.532825
vn 0.927530 0.000000 0.373750
vn 0.927530 0.000000 0.373750
vn 0.000000 -1.000000 -0.000000
vn 0.000000 -1.000000 -0.000000
vn 0.000000 -1.000000 -0.000000
vn 0.000000 -1.000000 -0.000000
vn 0.000000 -1.000000 -0.000000
vn 0.000000 -1.000000 -0.000000
vn 0.000000 -1.000000 -0.000000
vn 0.000000 -1.000000 -0.000000
vn 0.000000 -1.000000 -0.000000
vn 0.000000 -1.000000 -0.000000
vn 0.000000 -1.000000 -0.000000
vn 0.000000 -1.000000 -0.000000
vn 0.000000 -1.000000 -0.000000
vn 0.000000 -1.000000 -0.000000
vn 0.000000 -1.000000 -0.000000
vn 0.000000 -1.000000 -0.000000
vn 0.000000 -1.000000 -0.000000
vn 0.000000 -1.000000 -0.000000
vn 0.000000 1.000000 -0.000000
vn 0.000000 1.000000 -0.000000
vn 0.000000 1.000000 -0.000000
vn 0.000000 1.000000 -0.000000
vn 0.000000 1.000000 -0.000000
vn 0.000000 1.000000 -0.000000
vn 0.000000 1.000000 -0.000000
vn 0.000000 1.000000 -0.000000
vn 0.000000 1.000000 -0.000000
vn 0.000000 1.000000 -0.000000
vn 0.000000 1.000000 -0.000000
vn 0.000000 1.000000 -0.000000
vn 0.000000 1.000000 -0.000000
vn 0.000000 1.000000 -0.000000
vn 0.000000 1.000000 -0.000000
vn 0.000000 1.000000 -0.000000
vn 0.000000 1.000000 0.000000
vn 0.000000 1.000000 0.000000
vn 0.000000 1.000000 0.000000
vn 0.000000 1.000000 0.000000
vn -0.000000 1.000000 0.000000
vn -0.000000 1.000000 0.000000
vn -0.000000 1.000000 0.000000
vn -0.000000 1.000000 0.000000
vn 0.000000 1.000000 0.000000
vn 0.000000 1.000000 0.000000
vn 0.000000 1.000000 0.000000
vn 0.000000 1.000000 0.000000
vn 0.000000 1.000000 0.000000
vn 0.000000 1.000000 0.000000
vn 0.000000 1.000000 0.000000
vn 0.000000 1.000000 0.000000
vn 0.000000 1.000000 0.000000
vn 0.000000 1.000000 0.000000
vn 0.000000 1.000000 0.000000
vn 0.000000 1.000000 0.000000
vn 0.000000 1.000000 0.000000
vn 0.000000 1.000000 0.000000
vn 0.000000 1.000000 0.000000
vn 0.000000 1.000000 0.000000
vn 0.000000 1.000000 0.000000
vn 0.000000 1.000000 0.000000
vn 0.000000 1.000000 0.000000
vn 0.000000 1.000000 0.000000
vn 0.000000 1.000000 0.000000
vn 0.000000 1.000000 0.000000
vn 0.000000 1.000000 0.000000
vn 0.000000 1.000000 0.000000
vn 0.000000 1.000000 0.000001
vn 0.000000 1.000000 0.000001
vn 0.000000 1.000000 0.000001
vn 0.000000 1.000000 0.000001
vn 0.000000 1.000000 0.000000
vn 0.000000 1.000000 0.000000
vn 0.000000 1.000000 0.000000
vn 0.000000 1.000000 0.000000
vn 0.000000 1.000000 0.000000
vn 0.000000 1.000000 0.000000
vn 0.000000 1.000000 0.000000
vn 0.000000 1.000000 0.000000
vn 0.000000 1.000000 0.000000
vn 0.000000 1.000000 0.000000
vn 0.000000 1.000000 0.000000
vn 0.000000 1.000000 0.000000
vn 0.000000 1.000000 0.000000
vn 0.000000 1.000000 0.000000
vn 0.000000 1.000000 0.000000
vn 0.000000 1.000000 0.000000
vn 0.000000 1.000000 0.000000
vn 0.000000 1.000000 0.000000
vn 0.000000 1.000000 0.000000
vn 0.000000 1.000000 0.000000
vn 0.000000 1.000000 0.000000
vn 0.000000 1.000000 0.000000
vn 0.000000 1.000000 0.000000
vn 0.000000 1.000000 0.000000
vn -0.997953 0.000000 0.063947
vn -0.997953 0.000000 0.063947
vn -0.997953 0.000000 0.063947
vn -0.997953 0.000000 0.063947
vn 0.997953 0.000000 0.063947
vn 0.997953 0.000000 0.063947
vn 0.997953 0.000000 0.063947
vn 0.997953 0.000000 0.063947
vn 0.960510 0.000000 -0.278245
vn 0.960510 0.000000 -0.278245
vn 0.960510 0.000000 -0.278245
vn 0.960510 0.000000 -0.278245
vn 0.889087 0.000000 -0.457738
vn 0.889087 0.000000 -0.457738
vn 0.889087 0.000000 -0.457738
vn 0.889087 0.000000 -0.457738
vn 0.799181 0.000000 -0.601091
vn 0.799181 0.000000 -0.601091
vn 0.799181 0.000000 -0.601091
vn 0.799181 0.000000 -0.601091
vn 0.690649 0.000000 -0.723190
vn 0.690649 0.000000 -0.723190
vn 0.690649 0.000000 -0.723190
vn 0.690649 0.000000 -0.723190
vn 0.554878 0.000000 -0.831931
vn 0.554878 0.000000 -0.831931
vn 0.554878 0.000000 -0.831931
vn 0.554878 0.000000 -0.831931
vn 0.374531 0.000000 -0.927214
vn 0.374531 0.000000 -0.927214
vn 0.374531 0.000000 -0.927214
vn 0.374531 0.000000 -0.927214
vn 0.000000 0.000000 -1.000000
vn 0.000000 0.000000 -1.000000
vn 0.000000 0.000000 -1.000000
vn 0.000000 0.000000 -1.000000
vn -0.374531 0.000000 -0.927214
vn -0.374531 0.000000 -0.927214
vn -0.374531 0.000000 -0.927214
vn -0.374531 0.000000 -0.927214
vn -0.554878 0.000000 -0.831931
vn -0.554878 0.000000 -0.831931
vn -0.554878 0.000000 -0.831931
vn -0.554878 0.000000 -0.831931
vn -0.690649 0.000000 -0.723190
vn -0.690649 0.000000 -0.723190
vn -0.690649 0.000000 -0.723190
vn -0.690649 0.000000 -0.723190
vn -0.799181 0.000000 -0.601091
vn -0.799181 0.000000 -0.601091
vn -0.799181 0.000000 -0.601091
vn -0.799181 0.000000 -0.601091
vn -0.889087 0.000000 -0.457738
vn -0.889087 0.000000 -0.457738
vn -0.889087 0.000000 -0.457738
vn -0.889087 0.000000 -0.457738
vn -0.960510 0.000000 -0.278245
vn -0.960510 0.000000 -0.278245
vn -0.960510 0.000000 -0.278245
vn -0.960510 0.000000 -0.278245
vn 0.745333 0.010274 -0.666613
vn 0.745333 0.010274 -0.666613
vn 0.745333 0.010274 -0.666613
vn 0.745333 0.010274 -0.666613
vn 0.000000 0.025284 -0.999680
vn 0.000000 0.025284 -0.999680
vn 0.000000 0.025284 -0.999680
vn 0.000000 0.025284 -0.999680
vn -0.795182 0.008366 -0.606314
vn -0.795182 0.008366 -0.606314
vn -0.795182 0.008366 -0.606314
vn -0.795182 0.008366 -0.606314
s 1
g pCube1
usemtl initialShadingGroup
f 18/91/1 6/92/2 25/93/3 27/94/4
f 26/1/5 19/2/6 4/3/7 2/4/8
f 3/7/9 5/8/10 12/9/11 1/10/12
f 5/8/10 11/11/13 13/12/14 12/9/11
f 11/111/13 10/107/15 14/108/16 13/112/14
f 10/107/15 9/103/17 15/104/18 14/108/16
f 9/103/17 8/99/19 16/100/20 15/104/18
f 8/99/19 7/95/21 17/96/22 16/100/20
f 7/95/21 6/92/2 18/91/1 17/96/22
f 25/93/3 24/97/23 28/98/24 27/94/4
f 24/97/23 23/101/25 29/102/26 28/98/24
f 23/101/25 22/105/27 30/106/28 29/102/26
f 22/105/27 21/109/29 31/110/30 30/106/28
f 21/109/29 20/113/31 32/114/32 31/110/30
f 20/5/31 19/2/6 26/1/5 32/6/32
s off
f 6/25/33 7/26/34 8/27/35 9/28/36 10/29/37 11/30/38 5/31/39 3/32/40 65/33/41 66/34/42 4/35/43 19/36/44 20/37/45 21/38/46 22/39/47 23/40/48 24/41/49 25/42/50
usemtl lambert2SG
f 49/43/51 50/44/52 51/45/53 52/46/54 53/47/55 54/48/56 55/49/57 56/50/58 57/51/59 58/52/60 59/53/61 60/54/62 61/55/63 62/56/64 63/57/65 64/58/66
usemtl initialShadingGroup
f 26/59/67 2/60/68 34/61/69 33/62/70
f 1/89/71 12/87/72 36/88/73 35/90/74
f 12/87/75 13/85/76 37/86/77 36/88/78
f 13/85/79 14/83/80 38/84/81 37/86/82
f 14/83/83 15/81/84 39/82/85 38/84/86
f 15/81/87 16/79/88 40/80/89 39/82/90
f 16/79/91 17/77/92 41/78/93 40/80/94
f 17/77/95 18/75/96 42/76/97 41/78/98
f 18/75/99 27/73/100 43/74/101 42/76/102
f 27/73/103 28/71/104 44/72/105 43/74/106
f 28/71/107 29/69/108 45/70/109 44/72/110
f 29/69/111 30/67/112 46/68/113 45/70/114
f 30/67/115 31/65/116 47/66/117 46/68/118
f 31/65/119 32/63/120 48/64/121 47/66/122
f 32/63/123 26/59/124 33/62/125 48/64/126
f 33/13/127 34/14/128 50/15/129 49/16/130
f 35/19/131 36/20/132 52/21/133 51/22/134
f 36/20/135 37/23/136 53/24/137 52/21/138
f 37/115/139 38/116/140 54/117/141 53/118/142
f 38/116/143 39/119/144 55/120/145 54/117/146
f 39/119/147 40/121/148 56/122/149 55/120/150
f 40/121/151 41/123/152 57/124/153 56/122/154
f 41/123/155 42/125/156 58/126/157 57/124/158
f 42/125/159 43/127/160 59/128/161 58/126/162
f 43/127/163 44/129/164 60/130/165 59/128/166
f 44/129/167 45/131/168 61/132/169 60/130/170
f 45/131/171 46/133/172 62/134/173 61/132/174
f 46/133/175 47/135/176 63/136/177 62/134/178
f 47/135/179 48/137/180 64/138/181 63/136/182
f 48/17/183 33/13/184 49/16/185 64/18/186
f 65/139/187 3/140/188 1/141/189 35/142/190
usemtl lambert2SG
f 51/143/191 50/144/192 66/145/193 65/146/194
usemtl initialShadingGroup
f 34/147/195 2/148/196 4/149/197 66/150/198
