# This file uses centimeters as units for non-parametric coordinates.

mtllib TopShelfUV.mtl
g default
v 7.709936 23.745465 -18.538961
v 28.430004 23.745465 -18.538961
v 7.709936 24.929545 -18.538961
v 28.430004 24.929545 -18.538961
v 7.709936 24.929545 -29.877100
v 28.430004 24.929545 -29.877100
v 7.709936 23.745465 -29.877100
v 28.430004 23.745465 -29.877100
vt 0.927633 0.342465
vt 0.810567 0.012229
vt 0.845055 0.000003
vt 0.962121 0.330239
vt 0.883950 0.342465
vt 0.766884 0.012229
vt 0.801372 0.000003
vt 0.918438 0.330239
vt 0.450012 0.683525
vt 0.359174 0.049710
vt 0.706001 0.000002
vt 0.796840 0.633817
vt 0.090839 0.683525
vt 0.000000 0.049710
vt 0.346827 0.000002
vt 0.437666 0.633817
vt 0.965809 0.790476
vt 0.737762 0.192172
vt 0.771953 0.179140
vt 1.000000 0.777444
vt 0.941541 0.611335
vt 0.713493 0.013032
vt 0.747684 0.000000
vt 0.975732 0.598303
vn 0.000000 0.000000 1.000000
vn 0.000000 0.000000 1.000000
vn 0.000000 0.000000 1.000000
vn 0.000000 0.000000 1.000000
vn 0.000000 1.000000 0.000000
vn 0.000000 1.000000 0.000000
vn 0.000000 1.000000 0.000000
vn 0.000000 1.000000 0.000000
vn 0.000000 0.000000 -1.000000
vn 0.000000 0.000000 -1.000000
vn 0.000000 0.000000 -1.000000
vn 0.000000 0.000000 -1.000000
vn 0.000000 -1.000000 0.000000
vn 0.000000 -1.000000 0.000000
vn 0.000000 -1.000000 0.000000
vn 0.000000 -1.000000 0.000000
vn 1.000000 0.000000 0.000000
vn 1.000000 0.000000 0.000000
vn 1.000000 0.000000 0.000000
vn 1.000000 0.000000 0.000000
vn -1.000000 0.000000 0.000000
vn -1.000000 0.000000 0.000000
vn -1.000000 0.000000 0.000000
vn -1.000000 0.000000 0.000000
s off
g TopShelf
usemtl blinn2SG
f 1/17/1 2/18/2 4/19/3 3/20/4
f 3/9/5 4/10/6 6/11/7 5/12/8
f 5/21/9 6/22/10 8/23/11 7/24/12
f 7/13/13 8/14/14 2/15/15 1/16/16
f 2/1/17 8/2/18 6/3/19 4/4/20
f 7/5/21 1/6/22 3/7/23 5/8/24
